<svg width="40" height="40" viewBox="0 0 40 40" fill="none" xmlns="http://www.w3.org/2000/svg">
<path d="M30.5 26V8.75C30.5 8.3375 30.1625 8 29.75 8H13.25C11.1781 8 9.5 9.67812 9.5 11.75V28.25C9.5 30.3219 11.1781 32 13.25 32H29.75C30.1625 32 30.5 31.6625 30.5 31.25V30.5C30.5 30.1344 30.2375 29.8297 29.8953 29.7641C29.6984 29.1547 29.6984 27.3453 29.8953 26.7359C30.2422 26.6656 30.5 26.3656 30.5 26ZM27.9688 29.75H13.25C12.4203 29.75 11.75 29.0797 11.75 28.25C11.75 27.425 12.425 26.75 13.25 26.75H27.9688C27.8422 27.5609 27.8422 28.9391 27.9688 29.75ZM28.25 24.5H13.25C12.7156 24.5 12.2094 24.6125 11.75 24.8141V11.75C11.75 10.9203 12.4203 10.25 13.25 10.25H28.25V24.5ZM19.6016 21.3359C19.8219 21.5516 20.1781 21.5516 20.3984 21.3359L23.8016 17.9937C24.7906 17.0234 24.7297 15.4109 23.6281 14.5156C22.5266 13.6203 21.0828 14.0188 20.3469 14.7406L20 15.0828L19.6531 14.7406C18.9359 14.0328 17.4875 13.6109 16.3719 14.5156C15.2656 15.4109 15.2094 17.0234 16.1984 17.9937L19.6016 21.3359Z" fill="#231F20"/>
</svg>
