<svg width="122" height="48" viewBox="0 0 122 48" fill="none" xmlns="http://www.w3.org/2000/svg">
<rect width="122" height="48" rx="24" fill="#231F20"/>
<path d="M38.5 30V12.75C38.5 12.3375 38.1625 12 37.75 12H21.25C19.1781 12 17.5 13.6781 17.5 15.75V32.25C17.5 34.3219 19.1781 36 21.25 36H37.75C38.1625 36 38.5 35.6625 38.5 35.25V34.5C38.5 34.1344 38.2375 33.8297 37.8953 33.7641C37.6984 33.1547 37.6984 31.3453 37.8953 30.7359C38.2422 30.6656 38.5 30.3656 38.5 30ZM35.9688 33.75H21.25C20.4203 33.75 19.75 33.0797 19.75 32.25C19.75 31.425 20.425 30.75 21.25 30.75H35.9688C35.8422 31.5609 35.8422 32.9391 35.9688 33.75ZM36.25 28.5H21.25C20.7156 28.5 20.2094 28.6125 19.75 28.8141V15.75C19.75 14.9203 20.4203 14.25 21.25 14.25H36.25V28.5ZM27.6016 25.3359C27.8219 25.5516 28.1781 25.5516 28.3984 25.3359L31.8016 21.9937C32.7906 21.0234 32.7297 19.4109 31.6281 18.5156C30.5266 17.6203 29.0828 18.0188 28.3469 18.7406L28 19.0828L27.6531 18.7406C26.9359 18.0328 25.4875 17.6109 24.3719 18.5156C23.2656 19.4109 23.2094 21.0234 24.1984 21.9937L27.6016 25.3359Z" fill="white"/>
<path d="M48.0756 28V19.2727H51.4165C52.0472 19.2727 52.5714 19.3722 52.989 19.571C53.4094 19.767 53.7234 20.0355 53.9308 20.3764C54.141 20.7173 54.2461 21.1037 54.2461 21.5355C54.2461 21.8906 54.1779 22.1946 54.0415 22.4474C53.9052 22.6974 53.7219 22.9006 53.4918 23.0568C53.2617 23.2131 53.0046 23.3253 52.7205 23.3935V23.4787C53.0302 23.4957 53.3271 23.5909 53.6112 23.7642C53.8981 23.9347 54.1325 24.1761 54.3143 24.4886C54.4961 24.8011 54.587 25.179 54.587 25.6222C54.587 26.0739 54.4776 26.4801 54.2589 26.8409C54.0401 27.1989 53.7106 27.4815 53.2702 27.6889C52.8299 27.8963 52.2759 28 51.6083 28H48.0756ZM49.6566 26.679H51.3569C51.9308 26.679 52.3441 26.5696 52.5969 26.3509C52.8526 26.1293 52.9805 25.8452 52.9805 25.4986C52.9805 25.2401 52.9165 25.0071 52.7887 24.7997C52.6609 24.5895 52.479 24.4247 52.2433 24.3054C52.0075 24.1832 51.7262 24.1222 51.3995 24.1222H49.6566V26.679ZM49.6566 22.9844H51.2205C51.4933 22.9844 51.739 22.9347 51.9577 22.8352C52.1765 22.733 52.3484 22.5895 52.4734 22.4048C52.6012 22.2173 52.6651 21.9957 52.6651 21.7401C52.6651 21.402 52.5458 21.1236 52.3072 20.9048C52.0714 20.6861 51.7205 20.5767 51.2546 20.5767H49.6566V22.9844ZM58.7493 28.1278C58.1101 28.1278 57.5561 27.9872 57.0874 27.706C56.6186 27.4247 56.255 27.0312 55.9964 26.5256C55.7408 26.0199 55.6129 25.429 55.6129 24.7528C55.6129 24.0767 55.7408 23.4844 55.9964 22.9759C56.255 22.4673 56.6186 22.0724 57.0874 21.7912C57.5561 21.5099 58.1101 21.3693 58.7493 21.3693C59.3885 21.3693 59.9425 21.5099 60.4112 21.7912C60.88 22.0724 61.2422 22.4673 61.4979 22.9759C61.7564 23.4844 61.8857 24.0767 61.8857 24.7528C61.8857 25.429 61.7564 26.0199 61.4979 26.5256C61.2422 27.0312 60.88 27.4247 60.4112 27.706C59.9425 27.9872 59.3885 28.1278 58.7493 28.1278ZM58.7578 26.892C59.1044 26.892 59.3942 26.7969 59.6271 26.6065C59.8601 26.4134 60.0334 26.1548 60.147 25.831C60.2635 25.5071 60.3217 25.1463 60.3217 24.7486C60.3217 24.348 60.2635 23.9858 60.147 23.6619C60.0334 23.3352 59.8601 23.0753 59.6271 22.8821C59.3942 22.6889 59.1044 22.5923 58.7578 22.5923C58.4027 22.5923 58.1072 22.6889 57.8714 22.8821C57.6385 23.0753 57.4638 23.3352 57.3473 23.6619C57.2337 23.9858 57.1768 24.348 57.1768 24.7486C57.1768 25.1463 57.2337 25.5071 57.3473 25.831C57.4638 26.1548 57.6385 26.4134 57.8714 26.6065C58.1072 26.7969 58.4027 26.892 58.7578 26.892ZM66.0501 28.1278C65.4109 28.1278 64.8569 27.9872 64.3881 27.706C63.9194 27.4247 63.5558 27.0312 63.2972 26.5256C63.0415 26.0199 62.9137 25.429 62.9137 24.7528C62.9137 24.0767 63.0415 23.4844 63.2972 22.9759C63.5558 22.4673 63.9194 22.0724 64.3881 21.7912C64.8569 21.5099 65.4109 21.3693 66.0501 21.3693C66.6893 21.3693 67.2433 21.5099 67.712 21.7912C68.1808 22.0724 68.543 22.4673 68.7987 22.9759C69.0572 23.4844 69.1864 24.0767 69.1864 24.7528C69.1864 25.429 69.0572 26.0199 68.7987 26.5256C68.543 27.0312 68.1808 27.4247 67.712 27.706C67.2433 27.9872 66.6893 28.1278 66.0501 28.1278ZM66.0586 26.892C66.4052 26.892 66.695 26.7969 66.9279 26.6065C67.1609 26.4134 67.3342 26.1548 67.4478 25.831C67.5643 25.5071 67.6225 25.1463 67.6225 24.7486C67.6225 24.348 67.5643 23.9858 67.4478 23.6619C67.3342 23.3352 67.1609 23.0753 66.9279 22.8821C66.695 22.6889 66.4052 22.5923 66.0586 22.5923C65.7035 22.5923 65.408 22.6889 65.1722 22.8821C64.9393 23.0753 64.7646 23.3352 64.6481 23.6619C64.5344 23.9858 64.4776 24.348 64.4776 24.7486C64.4776 25.1463 64.5344 25.5071 64.6481 25.831C64.7646 26.1548 64.9393 26.4134 65.1722 26.6065C65.408 26.7969 65.7035 26.892 66.0586 26.892ZM71.902 25.946L71.8977 24.0838H72.1449L74.4972 21.4545H76.2997L73.4062 24.6761H73.0866L71.902 25.946ZM70.4957 28V19.2727H72.0384V28H70.4957ZM74.6037 28L72.473 25.0213L73.5128 23.9347L76.4489 28H74.6037ZM77.3278 28V21.4545H78.8022V22.5668H78.8789C79.0153 22.1918 79.2411 21.8991 79.5565 21.6889C79.8718 21.4759 80.2482 21.3693 80.6857 21.3693C81.1289 21.3693 81.5025 21.4773 81.8065 21.6932C82.1133 21.9062 82.3292 22.1974 82.4542 22.5668H82.5224C82.6673 22.2031 82.9116 21.9134 83.2553 21.6974C83.6019 21.4787 84.0124 21.3693 84.4869 21.3693C85.0891 21.3693 85.5806 21.5597 85.9613 21.9403C86.342 22.321 86.5323 22.8764 86.5323 23.6065V28H84.9854V23.8452C84.9854 23.4389 84.8775 23.142 84.6616 22.9545C84.4457 22.7642 84.1815 22.669 83.869 22.669C83.4968 22.669 83.2056 22.7855 82.9954 23.0185C82.788 23.2486 82.6843 23.5483 82.6843 23.9176V28H81.1715V23.7812C81.1715 23.4432 81.0692 23.1733 80.8647 22.9716C80.663 22.7699 80.3988 22.669 80.0721 22.669C79.8505 22.669 79.6488 22.7259 79.467 22.8395C79.2852 22.9503 79.1403 23.108 79.0323 23.3125C78.9244 23.5142 78.8704 23.75 78.8704 24.0199V28H77.3278ZM89.9808 28.1321C89.5661 28.1321 89.1925 28.0582 88.8601 27.9105C88.5305 27.7599 88.2692 27.5384 88.076 27.2457C87.8857 26.9531 87.7905 26.5923 87.7905 26.1634C87.7905 25.794 87.8587 25.4886 87.995 25.2472C88.1314 25.0057 88.3175 24.8125 88.5533 24.6676C88.7891 24.5227 89.0547 24.4134 89.3501 24.3395C89.6484 24.2628 89.9567 24.2074 90.2749 24.1733C90.6584 24.1335 90.9695 24.098 91.2081 24.0668C91.4467 24.0327 91.62 23.9815 91.728 23.9134C91.8388 23.8423 91.8942 23.733 91.8942 23.5852V23.5597C91.8942 23.2386 91.799 22.9901 91.6087 22.8139C91.4183 22.6378 91.1442 22.5497 90.7862 22.5497C90.4084 22.5497 90.1087 22.6321 89.8871 22.7969C89.6683 22.9616 89.5206 23.1562 89.4439 23.3807L88.0036 23.1761C88.1172 22.7784 88.3047 22.446 88.5661 22.179C88.8274 21.9091 89.147 21.7074 89.5249 21.5739C89.9027 21.4375 90.3203 21.3693 90.7777 21.3693C91.093 21.3693 91.407 21.4062 91.7195 21.4801C92.032 21.554 92.3175 21.6761 92.576 21.8466C92.8345 22.0142 93.0419 22.2429 93.1982 22.5327C93.3572 22.8224 93.4368 23.1847 93.4368 23.6193V28H91.9538V27.1009H91.9027C91.8089 27.2827 91.6768 27.4531 91.5064 27.6122C91.3388 27.7685 91.1271 27.8949 90.8714 27.9915C90.6186 28.0852 90.3217 28.1321 89.9808 28.1321ZM90.3814 26.9986C90.6911 26.9986 90.9595 26.9375 91.1868 26.8153C91.4141 26.6903 91.5888 26.5256 91.7109 26.321C91.8359 26.1165 91.8984 25.8935 91.8984 25.652V24.8807C91.8501 24.9205 91.7678 24.9574 91.6513 24.9915C91.5376 25.0256 91.4098 25.0554 91.2678 25.081C91.1257 25.1065 90.9851 25.1293 90.8459 25.1491C90.7067 25.169 90.5859 25.1861 90.4837 25.2003C90.2536 25.2315 90.0476 25.2827 89.8658 25.3537C89.6839 25.4247 89.5405 25.5241 89.4354 25.652C89.3303 25.777 89.2777 25.9389 89.2777 26.1378C89.2777 26.4219 89.3814 26.6364 89.5888 26.7812C89.7962 26.9261 90.0604 26.9986 90.3814 26.9986ZM94.9879 28V21.4545H96.4837V22.5455H96.5518C96.6712 22.1676 96.8757 21.8764 97.1655 21.6719C97.4581 21.4645 97.7919 21.3608 98.1669 21.3608C98.2521 21.3608 98.3473 21.3651 98.4524 21.3736C98.5604 21.3793 98.6499 21.3892 98.7209 21.4034V22.8224C98.6555 22.7997 98.5518 22.7798 98.4098 22.7628C98.2706 22.7429 98.1357 22.733 98.005 22.733C97.7237 22.733 97.4709 22.794 97.2464 22.9162C97.0249 23.0355 96.8501 23.2017 96.7223 23.4148C96.5945 23.6278 96.5305 23.8736 96.5305 24.152V28H94.9879ZM101.152 25.946L101.148 24.0838H101.395L103.747 21.4545H105.55L102.656 24.6761H102.337L101.152 25.946ZM99.7457 28V19.2727H101.288V28H99.7457ZM103.854 28L101.723 25.0213L102.763 23.9347L105.699 28H103.854Z" fill="white"/>
</svg>
