<svg width="107" height="48" viewBox="0 0 107 48" fill="none" xmlns="http://www.w3.org/2000/svg">
<rect width="107" height="48" rx="24" fill="#231F20"/>
<g clip-path="url(#clip0_96_1398)">
<path d="M35.515 27.2173L34.9387 26.641C34.8662 26.5683 34.8254 26.4698 34.8255 26.3671V25.7419C34.8255 25.635 34.7389 25.5484 34.6319 25.5484H34.3387C34.2526 25.5484 34.1766 25.6055 34.1529 25.6877L33.9497 26.3879C33.938 26.4281 33.9135 26.4635 33.88 26.4886C33.8465 26.5137 33.8058 26.5273 33.7639 26.5273H33.58C33.5418 26.5273 33.5044 26.516 33.4727 26.4948C33.4409 26.4736 33.4161 26.4435 33.4015 26.4082L33.1426 25.7865C33.1132 25.7158 33.0636 25.6555 32.9999 25.613C32.9363 25.5706 32.8615 25.5479 32.785 25.5479H32.2C32.1197 25.5479 32.0408 25.5731 31.9755 25.6195L30.8282 26.4368C30.7444 26.4967 30.6535 26.5463 30.5577 26.5844L28.6542 27.346C28.5823 27.3747 28.5207 27.4243 28.4773 27.4884C28.4339 27.5525 28.4108 27.6281 28.4108 27.7055V28.1995C28.4108 28.3021 28.4515 28.4008 28.524 28.4734L29.1003 29.0497C29.2455 29.1948 29.4424 29.2766 29.6476 29.2766H30.1479C30.2113 29.2766 30.2742 29.2689 30.3356 29.2534L31.3648 28.996C31.8061 28.8856 32.2731 29.0148 32.5948 29.3366L33.2244 29.9661C33.3695 30.1113 33.5665 30.1931 33.7716 30.1931H34.5052C34.7103 30.1931 34.9073 30.1113 35.0524 29.9661L35.5155 29.5031C35.6606 29.3579 35.7424 29.161 35.7424 28.9558V27.7645C35.7419 27.5594 35.6602 27.3624 35.515 27.2173ZM28 12C21.3729 12 16 17.3724 16 24C16 30.6276 21.3729 36 28 36C34.6271 36 40 30.6276 40 24C40 17.3724 34.6271 12 28 12ZM28 33.6774C23.1918 33.6774 19.2032 30.1495 18.4585 25.5484H21.4861C21.6913 25.5484 21.8882 25.4666 22.0334 25.3215L22.9755 24.3798C23.1623 24.1931 23.4773 24.2444 23.5953 24.4805L24.6898 26.669C24.821 26.9313 25.089 27.0973 25.3823 27.0973H25.6774C26.1052 27.0973 26.4516 26.7508 26.4516 26.3231V25.8697C26.4516 25.6645 26.3698 25.4676 26.2247 25.3224L25.9508 25.0485C25.7998 24.8976 25.7998 24.6523 25.9508 24.5013L26.2247 24.2274C26.3698 24.0823 26.5668 24.0005 26.7719 24.0005H26.7869C27.0589 24.0005 27.311 23.8577 27.4508 23.6245L28.2913 22.2237C28.3784 22.0785 28.5913 22.0868 28.6668 22.2382C28.6989 22.3025 28.7483 22.3565 28.8094 22.3943C28.8705 22.4321 28.9409 22.4521 29.0127 22.4521H29.1613C29.3752 22.4521 29.5484 22.2789 29.5484 22.065V18.2855C29.5484 17.9923 29.3829 17.7242 29.1206 17.5931L28.5966 17.3313C28.331 17.1982 28.3077 16.8281 28.555 16.6631L30.9821 14.7987C34.8627 16.0587 37.6774 19.7047 37.6774 24C37.6774 29.3361 33.3361 33.6774 28 33.6774Z" fill="white"/>
</g>
<path d="M48.0756 28V19.2727H53.7518V20.598H49.6566V22.9673H53.4577V24.2926H49.6566V26.6747H53.7859V28H48.0756ZM56.5579 21.4545L57.8789 23.8707L59.2212 21.4545H60.8533L58.8803 24.7273L60.8874 28H59.2638L57.8789 25.6435L56.5067 28H54.8704L56.8647 24.7273L54.9215 21.4545H56.5579ZM62.0465 30.4545V21.4545H63.5636V22.5369H63.6531C63.7326 22.3778 63.8448 22.2088 63.9897 22.0298C64.1346 21.848 64.3306 21.6932 64.5778 21.5653C64.8249 21.4347 65.1403 21.3693 65.5238 21.3693C66.0295 21.3693 66.4854 21.4986 66.8917 21.7571C67.3008 22.0128 67.6246 22.392 67.8633 22.8949C68.1048 23.3949 68.2255 24.0085 68.2255 24.7358C68.2255 25.4545 68.1076 26.0653 67.8718 26.5682C67.636 27.071 67.315 27.4545 66.9087 27.7188C66.5025 27.983 66.0423 28.1151 65.5281 28.1151C65.1531 28.1151 64.842 28.0526 64.5948 27.9276C64.3477 27.8026 64.1488 27.652 63.9982 27.4759C63.8505 27.2969 63.7354 27.1278 63.6531 26.9688H63.5891V30.4545H62.0465ZM63.5593 24.7273C63.5593 25.1506 63.619 25.5213 63.7383 25.8395C63.8604 26.1577 64.0352 26.4062 64.2624 26.5852C64.4925 26.7614 64.771 26.8494 65.0977 26.8494C65.4386 26.8494 65.7241 26.7585 65.9542 26.5767C66.1843 26.392 66.3576 26.1406 66.4741 25.8224C66.5934 25.5014 66.6531 25.1364 66.6531 24.7273C66.6531 24.321 66.5948 23.9602 66.4783 23.6449C66.3619 23.3295 66.1886 23.0824 65.9585 22.9034C65.7283 22.7244 65.4414 22.6349 65.0977 22.6349C64.7681 22.6349 64.4883 22.7216 64.2582 22.8949C64.0281 23.0682 63.8533 23.3111 63.734 23.6236C63.6175 23.9361 63.5593 24.304 63.5593 24.7273ZM71.0891 19.2727V28H69.5465V19.2727H71.0891ZM75.5305 28.1278C74.8913 28.1278 74.3374 27.9872 73.8686 27.706C73.3999 27.4247 73.0362 27.0312 72.7777 26.5256C72.522 26.0199 72.3942 25.429 72.3942 24.7528C72.3942 24.0767 72.522 23.4844 72.7777 22.9759C73.0362 22.4673 73.3999 22.0724 73.8686 21.7912C74.3374 21.5099 74.8913 21.3693 75.5305 21.3693C76.1697 21.3693 76.7237 21.5099 77.1925 21.7912C77.6612 22.0724 78.0234 22.4673 78.2791 22.9759C78.5376 23.4844 78.6669 24.0767 78.6669 24.7528C78.6669 25.429 78.5376 26.0199 78.2791 26.5256C78.0234 27.0312 77.6612 27.4247 77.1925 27.706C76.7237 27.9872 76.1697 28.1278 75.5305 28.1278ZM75.5391 26.892C75.8857 26.892 76.1754 26.7969 76.4084 26.6065C76.6413 26.4134 76.8146 26.1548 76.9283 25.831C77.0447 25.5071 77.103 25.1463 77.103 24.7486C77.103 24.348 77.0447 23.9858 76.9283 23.6619C76.8146 23.3352 76.6413 23.0753 76.4084 22.8821C76.1754 22.6889 75.8857 22.5923 75.5391 22.5923C75.1839 22.5923 74.8885 22.6889 74.6527 22.8821C74.4197 23.0753 74.245 23.3352 74.1286 23.6619C74.0149 23.9858 73.9581 24.348 73.9581 24.7486C73.9581 25.1463 74.0149 25.5071 74.1286 25.831C74.245 26.1548 74.4197 26.4134 74.6527 26.6065C74.8885 26.7969 75.1839 26.892 75.5391 26.892ZM79.9762 28V21.4545H81.4719V22.5455H81.5401C81.6594 22.1676 81.864 21.8764 82.1538 21.6719C82.4464 21.4645 82.7802 21.3608 83.1552 21.3608C83.2404 21.3608 83.3356 21.3651 83.4407 21.3736C83.5487 21.3793 83.6381 21.3892 83.7092 21.4034V22.8224C83.6438 22.7997 83.5401 22.7798 83.3981 22.7628C83.2589 22.7429 83.1239 22.733 82.9933 22.733C82.712 22.733 82.4592 22.794 82.2347 22.9162C82.0131 23.0355 81.8384 23.2017 81.7106 23.4148C81.5827 23.6278 81.5188 23.8736 81.5188 24.152V28H79.9762ZM87.3622 28.1278C86.706 28.1278 86.1392 27.9915 85.6619 27.7188C85.1875 27.4432 84.8224 27.054 84.5668 26.5511C84.3111 26.0455 84.1832 25.4503 84.1832 24.7656C84.1832 24.0923 84.3111 23.5014 84.5668 22.9929C84.8253 22.4815 85.1861 22.0838 85.6491 21.7997C86.1122 21.5128 86.6562 21.3693 87.2812 21.3693C87.6847 21.3693 88.0653 21.4347 88.4233 21.5653C88.7841 21.6932 89.1023 21.892 89.3778 22.1619C89.6563 22.4318 89.875 22.7756 90.0341 23.1932C90.1932 23.608 90.2727 24.1023 90.2727 24.6761V25.1491H84.9077V24.1094H88.794C88.7912 23.8139 88.7273 23.5511 88.6023 23.321C88.4773 23.0881 88.3026 22.9048 88.0781 22.7713C87.8565 22.6378 87.598 22.571 87.3026 22.571C86.9872 22.571 86.7102 22.6477 86.4716 22.8011C86.233 22.9517 86.0469 23.1506 85.9134 23.3977C85.7827 23.642 85.7159 23.9105 85.7131 24.2031V25.1108C85.7131 25.4915 85.7827 25.8182 85.9219 26.0909C86.0611 26.3608 86.2557 26.5682 86.5057 26.7131C86.7557 26.8551 87.0483 26.9261 87.3835 26.9261C87.608 26.9261 87.8111 26.8949 87.9929 26.8324C88.1747 26.767 88.3324 26.6719 88.4659 26.5469C88.5994 26.4219 88.7003 26.267 88.7685 26.0824L90.2088 26.2443C90.1179 26.625 89.9446 26.9574 89.6889 27.2415C89.4361 27.5227 89.1122 27.7415 88.7173 27.8977C88.3224 28.0511 87.8707 28.1278 87.3622 28.1278Z" fill="white"/>
<defs>
<clipPath id="clip0_96_1398">
<rect width="24" height="24" fill="white" transform="translate(16 12)"/>
</clipPath>
</defs>
</svg>
