<svg width="40" height="40" viewBox="0 0 40 40" fill="none" xmlns="http://www.w3.org/2000/svg">
<path d="M31.7589 19.6417L21.4935 11.2079C21.0738 10.8584 20.545 10.6671 19.9989 10.6671C19.4528 10.6671 18.924 10.8584 18.5043 11.2079L8.2388 19.6417C8.17166 19.6979 8.11624 19.7667 8.07571 19.8443C8.03519 19.9219 8.01035 20.0068 8.00261 20.094C7.99487 20.1812 8.00439 20.2691 8.03061 20.3526C8.05684 20.4362 8.09927 20.5137 8.15547 20.5808L8.58213 21.0933C8.69561 21.2288 8.85823 21.3137 9.03426 21.3293C9.21029 21.345 9.38532 21.29 9.52089 21.1767L10.6655 20.2367V27.9996C10.6665 28.353 10.8073 28.6915 11.0571 28.9414C11.3069 29.1912 11.6455 29.332 11.9988 29.333H17.3322C17.6855 29.332 18.0241 29.1912 18.2739 28.9414C18.5237 28.6915 18.6645 28.353 18.6655 27.9996V23.6663H21.3322V27.9996C21.3332 28.353 21.474 28.6915 21.7238 28.9414C21.9737 29.1912 22.3122 29.332 22.6656 29.333H27.9989C28.3506 29.3322 28.6878 29.1929 28.9374 28.9452C29.187 28.6974 29.3289 28.3613 29.3323 28.0096V20.2358L30.4794 21.1783C30.6149 21.2917 30.79 21.3466 30.966 21.331C31.142 21.3154 31.3046 21.2305 31.4181 21.095L31.8444 20.5829C31.9008 20.5156 31.9433 20.4378 31.9695 20.354C31.9958 20.2702 32.0052 20.182 31.9973 20.0945C31.9893 20.0071 31.9642 19.922 31.9233 19.8443C31.8824 19.7666 31.8265 19.6977 31.7589 19.6417ZM27.326 27.333H23.3322V22.9996C23.3312 22.6463 23.1904 22.3077 22.9406 22.0579C22.6908 21.808 22.3522 21.6673 21.9989 21.6663H17.9989C17.6455 21.6673 17.307 21.808 17.0571 22.0579C16.8073 22.3077 16.6665 22.6463 16.6655 22.9996V27.333H12.6655V18.5942L19.9989 12.5683L27.3323 18.5917L27.326 27.333Z" fill="#231F20"/>
</svg>
