<svg width="98" height="48" viewBox="0 0 98 48" fill="none" xmlns="http://www.w3.org/2000/svg">
<rect width="98" height="48" rx="24" fill="#231F20"/>
<path d="M39.7589 23.6417L29.4935 15.2079C29.0738 14.8584 28.545 14.6671 27.9989 14.6671C27.4528 14.6671 26.924 14.8584 26.5043 15.2079L16.2388 23.6417C16.1717 23.6979 16.1162 23.7667 16.0757 23.8443C16.0352 23.9219 16.0103 24.0068 16.0026 24.094C15.9949 24.1812 16.0044 24.2691 16.0306 24.3526C16.0568 24.4362 16.0993 24.5137 16.1555 24.5808L16.5821 25.0933C16.6956 25.2288 16.8582 25.3137 17.0343 25.3293C17.2103 25.345 17.3853 25.29 17.5209 25.1767L18.6655 24.2367V31.9996C18.6665 32.353 18.8073 32.6915 19.0571 32.9414C19.3069 33.1912 19.6455 33.332 19.9988 33.333H25.3322C25.6855 33.332 26.0241 33.1912 26.2739 32.9414C26.5237 32.6915 26.6645 32.353 26.6655 31.9996V27.6663H29.3322V31.9996C29.3332 32.353 29.474 32.6915 29.7238 32.9414C29.9737 33.1912 30.3122 33.332 30.6656 33.333H35.9989C36.3506 33.3322 36.6878 33.1929 36.9374 32.9452C37.187 32.6974 37.3289 32.3613 37.3323 32.0096V24.2358L38.4794 25.1783C38.6149 25.2917 38.79 25.3466 38.966 25.331C39.142 25.3154 39.3046 25.2305 39.4181 25.095L39.8444 24.5829C39.9008 24.5156 39.9433 24.4378 39.9695 24.354C39.9958 24.2702 40.0052 24.182 39.9973 24.0945C39.9893 24.0071 39.9642 23.922 39.9233 23.8443C39.8824 23.7666 39.8265 23.6977 39.7589 23.6417ZM35.326 31.333H31.3322V26.9996C31.3312 26.6463 31.1904 26.3077 30.9406 26.0579C30.6908 25.808 30.3522 25.6673 29.9989 25.6663H25.9989C25.6455 25.6673 25.307 25.808 25.0571 26.0579C24.8073 26.3077 24.6665 26.6463 24.6655 26.9996V31.333H20.6655V22.5942L27.9989 16.5683L35.3323 22.5917L35.326 31.333Z" fill="white"/>
<path d="M48.3042 28V19.2727H49.8851V22.9673H53.9292V19.2727H55.5144V28H53.9292V24.2926H49.8851V28H48.3042ZM60.0208 28.1278C59.3816 28.1278 58.8276 27.9872 58.3588 27.706C57.8901 27.4247 57.5265 27.0312 57.2679 26.5256C57.0123 26.0199 56.8844 25.429 56.8844 24.7528C56.8844 24.0767 57.0123 23.4844 57.2679 22.9759C57.5265 22.4673 57.8901 22.0724 58.3588 21.7912C58.8276 21.5099 59.3816 21.3693 60.0208 21.3693C60.66 21.3693 61.214 21.5099 61.6827 21.7912C62.1515 22.0724 62.5137 22.4673 62.7694 22.9759C63.0279 23.4844 63.1571 24.0767 63.1571 24.7528C63.1571 25.429 63.0279 26.0199 62.7694 26.5256C62.5137 27.0312 62.1515 27.4247 61.6827 27.706C61.214 27.9872 60.66 28.1278 60.0208 28.1278ZM60.0293 26.892C60.3759 26.892 60.6657 26.7969 60.8986 26.6065C61.1316 26.4134 61.3049 26.1548 61.4185 25.831C61.535 25.5071 61.5932 25.1463 61.5932 24.7486C61.5932 24.348 61.535 23.9858 61.4185 23.6619C61.3049 23.3352 61.1316 23.0753 60.8986 22.8821C60.6657 22.6889 60.3759 22.5923 60.0293 22.5923C59.6742 22.5923 59.3787 22.6889 59.1429 22.8821C58.91 23.0753 58.7353 23.3352 58.6188 23.6619C58.5051 23.9858 58.4483 24.348 58.4483 24.7486C58.4483 25.1463 58.5051 25.5071 58.6188 25.831C58.7353 26.1548 58.91 26.4134 59.1429 26.6065C59.3787 26.7969 59.6742 26.892 60.0293 26.892ZM64.4664 28V21.4545H65.9409V22.5668H66.0176C66.1539 22.1918 66.3798 21.8991 66.6951 21.6889C67.0105 21.4759 67.3869 21.3693 67.8244 21.3693C68.2676 21.3693 68.6412 21.4773 68.9451 21.6932C69.252 21.9062 69.4679 22.1974 69.5929 22.5668H69.661C69.8059 22.2031 70.0502 21.9134 70.394 21.6974C70.7406 21.4787 71.1511 21.3693 71.6255 21.3693C72.2278 21.3693 72.7193 21.5597 73.1 21.9403C73.4806 22.321 73.671 22.8764 73.671 23.6065V28H72.1241V23.8452C72.1241 23.4389 72.0162 23.142 71.8002 22.9545C71.5843 22.7642 71.3201 22.669 71.0076 22.669C70.6355 22.669 70.3443 22.7855 70.1341 23.0185C69.9267 23.2486 69.823 23.5483 69.823 23.9176V28H68.3102V23.7812C68.3102 23.4432 68.2079 23.1733 68.0034 22.9716C67.8017 22.7699 67.5375 22.669 67.2108 22.669C66.9892 22.669 66.7875 22.7259 66.6056 22.8395C66.4238 22.9503 66.2789 23.108 66.171 23.3125C66.063 23.5142 66.0091 23.75 66.0091 24.0199V28H64.4664ZM78.1337 28.1278C77.4775 28.1278 76.9107 27.9915 76.4334 27.7188C75.959 27.4432 75.5939 27.054 75.3382 26.5511C75.0826 26.0455 74.9547 25.4503 74.9547 24.7656C74.9547 24.0923 75.0826 23.5014 75.3382 22.9929C75.5968 22.4815 75.9576 22.0838 76.4206 21.7997C76.8837 21.5128 77.4277 21.3693 78.0527 21.3693C78.4561 21.3693 78.8368 21.4347 79.1948 21.5653C79.5556 21.6932 79.8738 21.892 80.1493 22.1619C80.4277 22.4318 80.6465 22.7756 80.8056 23.1932C80.9647 23.608 81.0442 24.1023 81.0442 24.6761V25.1491H75.6792V24.1094H79.5655C79.5627 23.8139 79.4988 23.5511 79.3738 23.321C79.2488 23.0881 79.074 22.9048 78.8496 22.7713C78.628 22.6378 78.3695 22.571 78.074 22.571C77.7587 22.571 77.4817 22.6477 77.2431 22.8011C77.0044 22.9517 76.8184 23.1506 76.6848 23.3977C76.5542 23.642 76.4874 23.9105 76.4846 24.2031V25.1108C76.4846 25.4915 76.5542 25.8182 76.6934 26.0909C76.8326 26.3608 77.0272 26.5682 77.2772 26.7131C77.5272 26.8551 77.8198 26.9261 78.155 26.9261C78.3794 26.9261 78.5826 26.8949 78.7644 26.8324C78.9462 26.767 79.1039 26.6719 79.2374 26.5469C79.3709 26.4219 79.4718 26.267 79.54 26.0824L80.9803 26.2443C80.8894 26.625 80.7161 26.9574 80.4604 27.2415C80.2076 27.5227 79.8837 27.7415 79.4888 27.8977C79.0939 28.0511 78.6422 28.1278 78.1337 28.1278Z" fill="white"/>
</svg>
