<svg width="40" height="40" viewBox="0 0 40 40" fill="none" xmlns="http://www.w3.org/2000/svg">
<path d="M24.2 22.25C22.8547 22.25 22.2078 23 20 23C17.7922 23 17.15 22.25 15.8 22.25C12.3219 22.25 9.5 25.0719 9.5 28.55V29.75C9.5 30.9922 10.5078 32 11.75 32H28.25C29.4922 32 30.5 30.9922 30.5 29.75V28.55C30.5 25.0719 27.6781 22.25 24.2 22.25ZM28.25 29.75H11.75V28.55C11.75 26.3188 13.5687 24.5 15.8 24.5C16.4844 24.5 17.5953 25.25 20 25.25C22.4234 25.25 23.5109 24.5 24.2 24.5C26.4312 24.5 28.25 26.3188 28.25 28.55V29.75ZM20 21.5C23.7266 21.5 26.75 18.4766 26.75 14.75C26.75 11.0234 23.7266 8 20 8C16.2734 8 13.25 11.0234 13.25 14.75C13.25 18.4766 16.2734 21.5 20 21.5ZM20 10.25C22.4797 10.25 24.5 12.2703 24.5 14.75C24.5 17.2297 22.4797 19.25 20 19.25C17.5203 19.25 15.5 17.2297 15.5 14.75C15.5 12.2703 17.5203 10.25 20 10.25Z" fill="#231F20"/>
</svg>
