<svg width="101" height="48" viewBox="0 0 101 48" fill="none" xmlns="http://www.w3.org/2000/svg">
<rect width="101" height="48" rx="24" fill="#231F20"/>
<path d="M32.2 26.25C30.8547 26.25 30.2078 27 28 27C25.7922 27 25.15 26.25 23.8 26.25C20.3219 26.25 17.5 29.0719 17.5 32.55V33.75C17.5 34.9922 18.5078 36 19.75 36H36.25C37.4922 36 38.5 34.9922 38.5 33.75V32.55C38.5 29.0719 35.6781 26.25 32.2 26.25ZM36.25 33.75H19.75V32.55C19.75 30.3188 21.5687 28.5 23.8 28.5C24.4844 28.5 25.5953 29.25 28 29.25C30.4234 29.25 31.5109 28.5 32.2 28.5C34.4312 28.5 36.25 30.3188 36.25 32.55V33.75ZM28 25.5C31.7266 25.5 34.75 22.4766 34.75 18.75C34.75 15.0234 31.7266 12 28 12C24.2734 12 21.25 15.0234 21.25 18.75C21.25 22.4766 24.2734 25.5 28 25.5ZM28 14.25C30.4797 14.25 32.5 16.2703 32.5 18.75C32.5 21.2297 30.4797 23.25 28 23.25C25.5203 23.25 23.5 21.2297 23.5 18.75C23.5 16.2703 25.5203 14.25 28 14.25Z" fill="white"/>
<path d="M48.1577 28V19.2727H51.4304C52.1009 19.2727 52.6634 19.3977 53.1179 19.6477C53.5753 19.8977 53.9205 20.2415 54.1534 20.679C54.3892 21.1136 54.5071 21.608 54.5071 22.1619C54.5071 22.7216 54.3892 23.2187 54.1534 23.6534C53.9176 24.0881 53.5696 24.4304 53.1094 24.6804C52.6491 24.9276 52.0824 25.0511 51.4091 25.0511H49.2401V23.7514H51.196C51.5881 23.7514 51.9091 23.6832 52.1591 23.5469C52.4091 23.4105 52.5938 23.223 52.7131 22.9844C52.8352 22.7457 52.8963 22.4716 52.8963 22.1619C52.8963 21.8523 52.8352 21.5795 52.7131 21.3438C52.5938 21.108 52.4077 20.9247 52.1548 20.794C51.9048 20.6605 51.5824 20.5938 51.1875 20.5938H49.7386V28H48.1577ZM55.8121 28V21.4545H57.3079V22.5455H57.3761C57.4954 22.1676 57.6999 21.8764 57.9897 21.6719C58.2823 21.4645 58.6161 21.3608 58.9911 21.3608C59.0763 21.3608 59.1715 21.3651 59.2766 21.3736C59.3846 21.3793 59.4741 21.3892 59.5451 21.4034V22.8224C59.4798 22.7997 59.3761 22.7798 59.234 22.7628C59.0948 22.7429 58.9599 22.733 58.8292 22.733C58.5479 22.733 58.2951 22.794 58.0707 22.9162C57.8491 23.0355 57.6744 23.2017 57.5465 23.4148C57.4187 23.6278 57.3548 23.8736 57.3548 24.152V28H55.8121ZM63.1555 28.1278C62.5163 28.1278 61.9624 27.9872 61.4936 27.706C61.0249 27.4247 60.6612 27.0312 60.4027 26.5256C60.147 26.0199 60.0192 25.429 60.0192 24.7528C60.0192 24.0767 60.147 23.4844 60.4027 22.9759C60.6612 22.4673 61.0249 22.0724 61.4936 21.7912C61.9624 21.5099 62.5163 21.3693 63.1555 21.3693C63.7947 21.3693 64.3487 21.5099 64.8175 21.7912C65.2862 22.0724 65.6484 22.4673 65.9041 22.9759C66.1626 23.4844 66.2919 24.0767 66.2919 24.7528C66.2919 25.429 66.1626 26.0199 65.9041 26.5256C65.6484 27.0312 65.2862 27.4247 64.8175 27.706C64.3487 27.9872 63.7947 28.1278 63.1555 28.1278ZM63.1641 26.892C63.5107 26.892 63.8004 26.7969 64.0334 26.6065C64.2663 26.4134 64.4396 26.1548 64.5533 25.831C64.6697 25.5071 64.728 25.1463 64.728 24.7486C64.728 24.348 64.6697 23.9858 64.5533 23.6619C64.4396 23.3352 64.2663 23.0753 64.0334 22.8821C63.8004 22.6889 63.5107 22.5923 63.1641 22.5923C62.8089 22.5923 62.5135 22.6889 62.2777 22.8821C62.0447 23.0753 61.87 23.3352 61.7536 23.6619C61.6399 23.9858 61.5831 24.348 61.5831 24.7486C61.5831 25.1463 61.6399 25.5071 61.7536 25.831C61.87 26.1548 62.0447 26.4134 62.2777 26.6065C62.5135 26.7969 62.8089 26.892 63.1641 26.892ZM70.9165 21.4545V22.6477H67.0472V21.4545H70.9165ZM68.0146 28V20.8366C68.0146 20.3963 68.1055 20.0298 68.2873 19.7372C68.4719 19.4446 68.7191 19.2259 69.0288 19.081C69.3384 18.9361 69.6822 18.8636 70.06 18.8636C70.3271 18.8636 70.5643 18.8849 70.7717 18.9276C70.979 18.9702 71.1325 19.0085 71.2319 19.0426L70.9251 20.2358C70.8597 20.2159 70.7773 20.196 70.6779 20.1761C70.5785 20.1534 70.4677 20.142 70.3455 20.142C70.0586 20.142 69.8555 20.2116 69.7362 20.3509C69.6197 20.4872 69.5614 20.6832 69.5614 20.9389V28H68.0146ZM72.1246 28V21.4545H73.6673V28H72.1246ZM72.9002 20.5256C72.6559 20.5256 72.4457 20.4446 72.2695 20.2827C72.0934 20.1179 72.0053 19.9205 72.0053 19.6903C72.0053 19.4574 72.0934 19.2599 72.2695 19.098C72.4457 18.9332 72.6559 18.8509 72.9002 18.8509C73.1474 18.8509 73.3576 18.9332 73.5309 19.098C73.707 19.2599 73.7951 19.4574 73.7951 19.6903C73.7951 19.9205 73.707 20.1179 73.5309 20.2827C73.3576 20.4446 73.1474 20.5256 72.9002 20.5256ZM76.7962 19.2727V28H75.2536V19.2727H76.7962ZM81.2802 28.1278C80.6239 28.1278 80.0572 27.9915 79.5799 27.7188C79.1055 27.4432 78.7404 27.054 78.4847 26.5511C78.229 26.0455 78.1012 25.4503 78.1012 24.7656C78.1012 24.0923 78.229 23.5014 78.4847 22.9929C78.7433 22.4815 79.104 22.0838 79.5671 21.7997C80.0302 21.5128 80.5742 21.3693 81.1992 21.3693C81.6026 21.3693 81.9833 21.4347 82.3413 21.5653C82.7021 21.6932 83.0202 21.892 83.2958 22.1619C83.5742 22.4318 83.793 22.7756 83.9521 23.1932C84.1112 23.608 84.1907 24.1023 84.1907 24.6761V25.1491H78.8256V24.1094H82.712C82.7092 23.8139 82.6452 23.5511 82.5202 23.321C82.3952 23.0881 82.2205 22.9048 81.9961 22.7713C81.7745 22.6378 81.516 22.571 81.2205 22.571C80.9052 22.571 80.6282 22.6477 80.3896 22.8011C80.1509 22.9517 79.9648 23.1506 79.8313 23.3977C79.7006 23.642 79.6339 23.9105 79.631 24.2031V25.1108C79.631 25.4915 79.7006 25.8182 79.8398 26.0909C79.979 26.3608 80.1737 26.5682 80.4237 26.7131C80.6737 26.8551 80.9663 26.9261 81.3015 26.9261C81.5259 26.9261 81.729 26.8949 81.9109 26.8324C82.0927 26.767 82.2504 26.6719 82.3839 26.5469C82.5174 26.4219 82.6183 26.267 82.6864 26.0824L84.1268 26.2443C84.0359 26.625 83.8626 26.9574 83.6069 27.2415C83.354 27.5227 83.0302 27.7415 82.6353 27.8977C82.2404 28.0511 81.7887 28.1278 81.2802 28.1278Z" fill="white"/>
</svg>
